<?xml version="1.0" encoding="UTF-8"?>
<svg id="Layer_1" xmlns="http://www.w3.org/2000/svg" version="1.1" viewBox="0 0 800 300">
  <!-- Generator: Adobe Illustrator 30.3.0, SVG Export Plug-In . SVG Version: 2.1.3 Build 182)  -->
  <defs>
    <style>
      .st0 {
        fill: #d81d4d;
      }

      .st1 {
        fill: #0e2d3f;
      }
    </style>
  </defs>
  <g>
    <rect class="st0" x="25.06" y="197.58" width="11.43" height="11.43"/>
    <rect class="st0" x="49.9" y="197.57" width="11.43" height="11.43"/>
    <rect class="st0" x="62.33" y="197.57" width="11.43" height="11.43"/>
    <rect class="st0" x="37.48" y="197.57" width="11.43" height="11.43"/>
    <rect class="st0" x="25.06" y="181.68" width="11.43" height="11.43"/>
    <rect class="st0" x="49.9" y="185.38" width="11.43" height="11.43"/>
    <rect class="st0" x="62.33" y="185.38" width="11.43" height="11.43"/>
    <rect class="st0" x="37.48" y="168.72" width="11.43" height="11.43"/>
    <rect class="st0" x="25.06" y="148.03" width="11.43" height="11.43"/>
    <rect class="st0" x="49.9" y="163.92" width="11.43" height="11.43"/>
    <rect class="st0" x="62.33" y="173.19" width="11.43" height="11.42"/>
    <rect class="st0" x="37.48" y="142.63" width="11.43" height="11.43"/>
    <rect class="st0" x="25.06" y="130.28" width="11.43" height="11.43"/>
    <rect class="st0" x="49.9" y="151.73" width="11.43" height="11.44"/>
    <rect class="st0" x="62.33" y="142.47" width="11.43" height="11.43"/>
    <rect class="st0" x="37.48" y="117.48" width="11.43" height="11.43"/>
    <rect class="st0" x="25.06" y="111.76" width="11.43" height="11.43"/>
    <rect class="st0" x="49.9" y="130.28" width="11.43" height="11.43"/>
    <rect class="st0" x="62.33" y="113.62" width="11.43" height="11.43"/>
    <rect class="st0" x="37.48" y="88.61" width="11.43" height="11.43"/>
  </g>
  <g>
    <path class="st1" d="M90.3,104.55h34.73c8.41,0,16.4.95,23.97,2.83,7.57,1.87,14.17,4.92,19.82,9.12,5.63,4.21,10.1,9.67,13.43,16.4,3.32,6.73,4.97,14.89,4.97,24.49,0,8.52-1.61,16.01-4.83,22.49-3.22,6.48-7.54,11.92-12.99,16.32-5.44,4.41-11.72,7.75-18.84,10.02-7.12,2.28-14.59,3.41-22.41,3.41h-37.85v-105.08ZM113.45,188.26h12.03c5.34,0,10.31-.54,14.91-1.64,4.6-1.08,8.58-2.89,11.94-5.41,3.37-2.53,6.02-5.84,7.95-9.94,1.93-4.11,2.89-9.14,2.89-15.07,0-5.14-.97-9.62-2.89-13.43-1.93-3.81-4.53-6.95-7.8-9.43-3.26-2.48-7.11-4.33-11.5-5.57-4.41-1.24-9.03-1.85-13.88-1.85h-13.66v62.34Z"/>
    <path class="st1" d="M203.83,104.55h71.39v21.37h-48.23v19.59h45.56v21.37h-45.56v21.37h50.9v21.37h-74.06v-105.08Z"/>
    <path class="st1" d="M297.33,104.55h71.39v21.37h-48.23v19.59h45.56v21.37h-45.56v21.37h50.9v21.37h-74.06v-105.08Z"/>
    <path class="st1" d="M389.94,104.55h39.03c5.43,0,10.58.5,15.43,1.48,4.84,1,9.08,2.7,12.69,5.13,3.61,2.42,6.47,5.69,8.6,9.8,2.12,4.1,3.19,9.27,3.19,15.51s-1,11.28-2.97,15.43c-1.99,4.15-4.71,7.48-8.17,9.95-3.46,2.47-7.56,4.22-12.32,5.27-4.74,1.03-9.89,1.56-15.43,1.56h-16.92v40.96h-23.15v-105.08ZM413.09,149.07h15.44c2.07,0,4.08-.2,6.01-.6,1.93-.39,3.66-1.05,5.19-1.99,1.53-.95,2.76-2.23,3.72-3.86.93-1.64,1.4-3.69,1.4-6.16,0-2.67-.62-4.83-1.85-6.46-1.24-1.63-2.82-2.89-4.75-3.78-1.93-.9-4.08-1.46-6.46-1.71-2.38-.25-4.65-.37-6.82-.37h-11.88v24.93Z"/>
    <path class="st1" d="M484.33,104.55h23.15v83.71h42.89v21.37h-66.04v-105.08Z"/>
    <path class="st1" d="M557.49,157.09c0-8.4,1.41-16.03,4.23-22.85,2.81-6.82,6.75-12.64,11.8-17.43,5.05-4.81,11.03-8.49,17.96-11.06,6.92-2.57,14.49-3.86,22.71-3.86s15.78,1.29,22.71,3.86c6.93,2.57,12.92,6.25,17.96,11.06,5.05,4.79,8.97,10.61,11.8,17.43,2.81,6.82,4.23,14.45,4.23,22.85s-1.41,16.03-4.23,22.86c-2.83,6.82-6.76,12.64-11.8,17.44-5.04,4.8-11.03,8.48-17.96,11.05-6.92,2.57-14.49,3.86-22.71,3.86s-15.78-1.3-22.71-3.86c-6.93-2.57-12.91-6.25-17.96-11.05-5.05-4.8-8.98-10.62-11.8-17.44-2.82-6.83-4.23-14.44-4.23-22.86ZM581.53,157.09c0,4.95.77,9.48,2.3,13.58,1.54,4.11,3.74,7.67,6.61,10.68,2.87,3.03,6.31,5.37,10.32,7.05,4.01,1.69,8.48,2.52,13.43,2.52s9.43-.83,13.43-2.52c4.01-1.68,7.44-4.03,10.31-7.05,2.87-3.01,5.07-6.57,6.6-10.68,1.53-4.1,2.3-8.63,2.3-13.58s-.76-9.35-2.3-13.51c-1.53-4.15-3.73-7.74-6.6-10.76-2.87-3.02-6.3-5.37-10.31-7.05-4.01-1.69-8.49-2.52-13.43-2.52s-9.42.84-13.43,2.52c-4.01,1.68-7.45,4.03-10.32,7.05-2.87,3.02-5.07,6.6-6.61,10.76-1.53,4.16-2.3,8.66-2.3,13.51Z"/>
    <path class="st1" d="M712.43,164.81l-39.48-60.26h28.8l22.25,39.33,23.61-39.33h27.45l-39.48,60.26v44.82h-23.15v-44.82Z"/>
  </g>
</svg>