<?xml version="1.0" encoding="UTF-8"?>
<svg id="Layer_1" xmlns="http://www.w3.org/2000/svg" version="1.1" viewBox="0 0 800 300">
  <!-- Generator: Adobe Illustrator 30.3.0, SVG Export Plug-In . SVG Version: 2.1.3 Build 182)  -->
  <defs>
    <style>
      .st0 {
        fill: #0e2d3f;
      }
    </style>
  </defs>
  <g>
    <rect class="st0" x="25" y="197.11" width="11.43" height="11.43"/>
    <rect class="st0" x="49.84" y="197.11" width="11.43" height="11.43"/>
    <rect class="st0" x="62.26" y="197.11" width="11.43" height="11.43"/>
    <rect class="st0" x="37.42" y="197.11" width="11.43" height="11.43"/>
    <rect class="st0" x="25" y="181.21" width="11.43" height="11.43"/>
    <rect class="st0" x="49.84" y="184.92" width="11.43" height="11.43"/>
    <rect class="st0" x="62.26" y="184.92" width="11.43" height="11.43"/>
    <rect class="st0" x="37.42" y="168.25" width="11.43" height="11.42"/>
    <rect class="st0" x="25" y="147.57" width="11.43" height="11.43"/>
    <rect class="st0" x="49.84" y="163.47" width="11.43" height="11.42"/>
    <rect class="st0" x="62.26" y="172.73" width="11.43" height="11.42"/>
    <rect class="st0" x="37.42" y="142.17" width="11.43" height="11.43"/>
    <rect class="st0" x="25" y="129.82" width="11.43" height="11.43"/>
    <rect class="st0" x="49.84" y="151.27" width="11.43" height="11.43"/>
    <rect class="st0" x="62.26" y="142.01" width="11.43" height="11.43"/>
    <rect class="st0" x="37.42" y="117.01" width="11.43" height="11.43"/>
    <rect class="st0" x="25" y="111.3" width="11.43" height="11.43"/>
    <rect class="st0" x="49.84" y="129.82" width="11.43" height="11.43"/>
    <rect class="st0" x="62.26" y="113.16" width="11.43" height="11.43"/>
    <rect class="st0" x="37.42" y="88.16" width="11.43" height="11.43"/>
  </g>
  <g>
    <path class="st0" d="M90.24,104.09h34.73c8.41,0,16.4.95,23.97,2.82,7.57,1.88,14.17,4.92,19.82,9.13,5.63,4.21,10.11,9.67,13.43,16.4,3.31,6.73,4.97,14.89,4.97,24.49,0,8.51-1.61,16.01-4.83,22.49-3.22,6.48-7.55,11.92-12.99,16.32-5.44,4.41-11.72,7.74-18.85,10.02-7.12,2.27-14.59,3.41-22.41,3.41h-37.85v-105.08ZM113.39,187.79h12.02c5.34,0,10.31-.54,14.91-1.63,4.6-1.08,8.58-2.89,11.94-5.41,3.36-2.53,6.02-5.84,7.94-9.94,1.93-4.1,2.9-9.13,2.9-15.06,0-5.14-.97-9.62-2.9-13.43-1.93-3.81-4.53-6.95-7.79-9.43-3.27-2.47-7.1-4.33-11.5-5.57-4.41-1.23-9.03-1.86-13.88-1.86h-13.65v62.33Z"/>
    <path class="st0" d="M203.77,104.09h71.39v21.37h-48.23v19.59h45.56v21.37h-45.56v21.37h50.9v21.37h-74.06v-105.08Z"/>
    <path class="st0" d="M297.27,104.09h71.39v21.37h-48.23v19.59h45.56v21.37h-45.56v21.37h50.9v21.37h-74.06v-105.08Z"/>
    <path class="st0" d="M389.88,104.09h39.03c5.44,0,10.58.5,15.43,1.48,4.85.99,9.08,2.7,12.69,5.12,3.61,2.42,6.47,5.69,8.6,9.8,2.13,4.1,3.19,9.28,3.19,15.51s-.99,11.28-2.97,15.44c-1.98,4.15-4.7,7.47-8.16,9.94-3.47,2.47-7.57,4.23-12.32,5.27-4.75,1.04-9.89,1.56-15.43,1.56h-16.92v40.96h-23.15v-105.08ZM413.03,148.62h15.44c2.08,0,4.08-.2,6.01-.6,1.93-.39,3.66-1.06,5.19-2,1.54-.94,2.77-2.23,3.71-3.86.94-1.63,1.41-3.69,1.41-6.16,0-2.67-.62-4.83-1.86-6.46-1.24-1.63-2.82-2.89-4.75-3.78-1.93-.89-4.08-1.46-6.46-1.71-2.38-.24-4.65-.37-6.82-.37h-11.87v24.93Z"/>
    <path class="st0" d="M484.26,104.09h23.15v83.71h42.89v21.37h-66.04v-105.08Z"/>
    <path class="st0" d="M557.43,156.63c0-8.4,1.41-16.03,4.23-22.85,2.82-6.83,6.75-12.64,11.8-17.44,5.05-4.8,11.03-8.49,17.96-11.06,6.93-2.57,14.49-3.86,22.71-3.86s15.78,1.29,22.71,3.86c6.93,2.57,12.91,6.25,17.96,11.06,5.05,4.8,8.98,10.61,11.8,17.44,2.82,6.82,4.22,14.45,4.22,22.85s-1.41,16.03-4.22,22.86c-2.83,6.82-6.76,12.64-11.8,17.44-5.05,4.8-11.03,8.48-17.96,11.05-6.93,2.57-14.49,3.86-22.71,3.86s-15.78-1.29-22.71-3.86c-6.93-2.57-12.91-6.25-17.96-11.05-5.05-4.8-8.98-10.62-11.8-17.44-2.82-6.83-4.23-14.44-4.23-22.86ZM581.47,156.63c0,4.95.77,9.48,2.3,13.58,1.54,4.11,3.74,7.67,6.61,10.68,2.87,3.02,6.31,5.37,10.32,7.05,4.01,1.68,8.48,2.52,13.43,2.52s9.43-.84,13.43-2.52c4.01-1.68,7.44-4.03,10.31-7.05,2.87-3.01,5.07-6.58,6.61-10.68,1.53-4.1,2.3-8.63,2.3-13.58s-.77-9.35-2.3-13.51c-1.53-4.16-3.74-7.74-6.61-10.76-2.87-3.02-6.31-5.37-10.31-7.05-4.01-1.68-8.48-2.52-13.43-2.52s-9.42.84-13.43,2.52c-4.01,1.69-7.45,4.03-10.32,7.05-2.87,3.01-5.07,6.6-6.61,10.76-1.53,4.16-2.3,8.66-2.3,13.51Z"/>
    <path class="st0" d="M712.37,164.35l-39.48-60.26h28.8l22.26,39.33,23.6-39.33h27.45l-39.48,60.26v44.82h-23.15v-44.82Z"/>
  </g>
</svg>