<?xml version="1.0" encoding="UTF-8"?>
<svg id="Layer_1" xmlns="http://www.w3.org/2000/svg" version="1.1" viewBox="0 0 600 600">
  <!-- Generator: Adobe Illustrator 30.3.0, SVG Export Plug-In . SVG Version: 2.1.3 Build 182)  -->
  <defs>
    <style>
      .st0 {
        fill: #d81d4d;
      }

      .st1 {
        fill: #0e2d3f;
      }
    </style>
  </defs>
  <rect class="st0" x="74.95" y="434.53" width="31.64" height="31.64"/>
  <rect class="st0" x="143.82" y="434.53" width="31.64" height="31.64"/>
  <rect class="st0" x="178.26" y="434.53" width="31.64" height="31.64"/>
  <rect class="st0" x="109.39" y="434.53" width="31.64" height="31.64"/>
  <rect class="st0" x="74.95" y="390.32" width="31.64" height="31.64"/>
  <rect class="st0" x="143.82" y="400.56" width="31.64" height="31.64"/>
  <rect class="st0" x="178.26" y="400.56" width="31.64" height="31.64"/>
  <rect class="st0" x="109.39" y="354.49" width="31.64" height="31.64"/>
  <rect class="st0" x="74.95" y="296.78" width="31.64" height="31.64"/>
  <rect class="st0" x="143.82" y="340.99" width="31.64" height="31.64"/>
  <rect class="st0" x="178.26" y="366.59" width="31.64" height="31.64"/>
  <rect class="st0" x="109.39" y="281.89" width="31.64" height="31.64"/>
  <rect class="st0" x="74.95" y="247.92" width="31.64" height="31.64"/>
  <rect class="st0" x="143.82" y="307.02" width="31.64" height="31.64"/>
  <rect class="st0" x="178.26" y="281.43" width="31.64" height="31.64"/>
  <rect class="st0" x="109.39" y="212.09" width="31.64" height="31.64"/>
  <rect class="st0" x="74.95" y="196.26" width="31.64" height="31.64"/>
  <rect class="st0" x="143.82" y="247.92" width="31.64" height="31.64"/>
  <rect class="st0" x="178.26" y="201.38" width="31.64" height="31.64"/>
  <rect class="st0" x="109.39" y="132.05" width="31.64" height="31.64"/>
  <path class="st1" d="M255.97,176.25h96.33c23.27,0,45.6,2.79,66.55,7.91s39.09,13.5,54.91,25.13c15.82,11.63,27.92,26.99,37.23,45.6,9.31,18.61,13.96,41.42,13.96,67.94s-4.65,44.21-13.5,62.36c-8.84,18.15-20.94,33.04-35.83,45.14s-32.57,21.41-52.12,27.92-40.49,9.31-62.36,9.31h-105.17s0-291.31,0-291.31ZM320.19,408.47h33.51c14.89,0,28.39-1.4,41.42-4.65,12.56-2.79,23.73-7.91,33.04-14.89,9.31-6.98,16.75-16.29,21.87-27.46,5.58-11.17,7.91-25.13,7.91-41.88s-2.79-26.53-7.91-37.23c-5.12-10.7-12.56-19.08-21.41-26.06s-19.54-12.1-32.11-15.36c-12.1-3.26-25.13-5.12-38.62-5.12h-37.69s0,172.65,0,172.65Z"/>
</svg>